<?xml version="1.0" standalone="no"?>
<!DOCTYPE svg PUBLIC "-//W3C//DTD SVG 1.0//EN" "http://www.w3.org/TR/2001/REC-SVG-20010904/DTD/svg10.dtd">
<svg xmlns="http://www.w3.org/2000/svg" xmlns:xlink="http://www.w3.org/1999/xlink" id="body_1" width="68" height="65">

<g transform="matrix(0.265625 0 0 0.265625 -0 0.093750596)">
    <path d="M177.381 169.733C 186.828 168.755 193.995 160.61101 193.66899 150.837C 193.344 141.06401 185.19899 133.24501 175.426 133.24501L175.426 133.24501L174.775 133.24501C 164.67499 133.57101 156.857 142.04102 157.183 152.14001C 157.509 157.02701 159.463 161.26201 162.395 164.19402C 151.319 186.02202 134.379 201.98502 108.96901 215.34201C 91.70301 224.464 73.78601 227.72202 55.86901 225.44202C 41.20901 223.48701 29.80701 216.97202 22.639011 206.22002C 12.215012 190.25702 11.238011 172.99002 20.034012 155.72401C 26.224012 143.34401 35.99601 134.22202 42.186012 129.66101C 40.88301 125.42601 38.928013 118.25901 37.95101 113.04701C -9.285988 147.25401 -4.398987 193.51501 9.935011 215.34201C 20.68501 231.63202 42.51201 241.73102 66.61901 241.73102C 73.13401 241.73102 79.64901 241.07903 86.16501 239.45102C 127.86401 231.30602 159.46402 206.54602 177.38101 169.73302L177.38101 169.73302L177.381 169.733zM234.717 129.336C 209.958 100.340996 173.472 84.378 131.773 84.378L131.773 84.378L126.561 84.378C 123.629 78.514 117.438995 74.604 110.598 74.604L110.598 74.604L109.946 74.604C 99.848 74.93 92.03 83.4 92.355 93.5C 92.681 103.273 100.825005 111.091995 110.59801 111.091995L110.59801 111.091995L111.24901 111.091995C 118.41601 110.766 124.60601 106.204994 127.212006 100.015L127.212006 100.015L133.076 100.015C 157.835 100.015 181.29001 107.182 202.466 121.191C 218.754 131.942 230.48201 145.951 236.99701 162.891C 242.535 176.574 242.20901 189.931 236.34502 201.33401C 227.22401 218.60002 211.91302 228.04802 191.71501 228.04802C 178.684 228.04802 166.30501 224.13802 159.78902 221.20602C 156.20602 224.46402 149.69002 229.67603 145.12901 232.93503C 159.13802 239.45003 173.47202 243.03403 187.15402 243.03403C 218.42802 243.03403 241.55801 225.76703 250.35402 208.50102C 259.80103 189.60503 259.14902 157.02702 234.71703 129.33603zM69.225 175.27C 69.550995 185.044 77.695 192.862 87.468 192.862L87.468 192.862L88.12 192.862C 98.219 192.537 106.037 184.066 105.711 173.967C 105.386 164.193 97.241 156.375 87.468 156.375L87.468 156.375L86.817 156.375C 86.165 156.375 85.187004 156.375 84.537 156.7C 71.18 134.547 65.642 110.44 67.597 84.377C 68.899 64.83 75.415 47.889 86.817 33.879997C 96.264 21.825996 114.507 15.961998 126.887 15.636997C 161.418 14.984997 176.077 57.988 177.055 75.255C 181.29 76.231995 188.457 78.513 193.344 80.142C 189.434 27.366 156.857 0 125.584 0C 96.264 0 69.225 21.176 58.474 52.451C 43.489 94.151 53.262 134.222 71.505 165.823C 69.877 168.103 68.898994 171.687 69.225 175.271z" stroke="none" fill="#764ABC" fill-rule="nonzero" />
</g>
</svg>